# xmcd
#
# Track frame offsets: 
#        150
#        12954
#        32674
#        55572
#        70140
#        83444
#        102392
#        114252
#        133890
#        149643
#        167497
#
# Disc length: 2349 seconds
#
# Revision: 0
# Processed by: cddbd v1.5.2PL0 Copyright (c) Steve Scherf et al.
# Submitted via: ExactAudioCopy v0.95b4
#
DISCID=8a092b0b
DTITLE=Bill Booth - Songs of the Land
DYEAR=2006
DGENRE=Country
TTITLE0=Miller Boy
TTITLE1=Off to America
TTITLE2=Burning Drums
TTITLE3=Cold Blue Night
TTITLE4=Heim Shine
TTITLE5=The Ancient Ones
TTITLE6=Bay Ridge Brooklyn
TTITLE7=Lindisfarne
TTITLE8=This Land is New
TTITLE9=Anna Rebecca
TTITLE10=Bunnefjord Breakdown
EXTD=
EXTT0=
EXTT1=
EXTT2=
EXTT3=
EXTT4=
EXTT5=
EXTT6=
EXTT7=
EXTT8=
EXTT9=
EXTT10=
PLAYORDER=
